<?xml version="1.0" standalone="no"?>
<!DOCTYPE svg PUBLIC "-//W3C//DTD SVG 20010904//EN"
 "http://www.w3.org/TR/2001/REC-SVG-20010904/DTD/svg10.dtd">
<svg version="1.0" xmlns="http://www.w3.org/2000/svg"
 width="225.000000pt" height="225.000000pt" viewBox="0 0 225.000000 225.000000"
 preserveAspectRatio="xMidYMid meet">

<g transform="translate(0.000000,225.000000) scale(0.100000,-0.100000)"
fill="#000000" stroke="none">
<path d="M29 1901 l-29 -29 0 -747 0 -747 29 -29 29 -29 1067 0 1067 0 29 29
29 29 0 747 0 747 -29 29 -29 29 -1067 0 -1067 0 -29 -29z m696 -366 c216
-140 396 -255 400 -255 4 0 184 115 400 255 l393 255 66 0 c116 0 106 62 106
-665 0 -731 11 -665 -115 -665 l-75 0 -2 545 -3 544 -370 -239 c-280 -182
-377 -240 -400 -240 -24 0 -121 58 -401 240 l-369 239 -3 -544 -2 -545 -75 0
c-126 0 -115 -66 -115 665 0 727 -10 665 106 665 l67 0 392 -255z"/>
</g>
</svg>
